#define font8x12_width 128
#define font8x12_height 192
static unsigned char font8x12_bits[] = {
   0x00, 0x00, 0x00, 0x00, 0x00, 0x00, 0x00, 0x00, 0x00, 0x00, 0x00, 0x00,
   0x00, 0x00, 0x00, 0x00, 0x00, 0x00, 0x00, 0x36, 0x08, 0x1c, 0x00, 0x00,
   0x00, 0x00, 0x00, 0x00, 0x00, 0x00, 0x20, 0x00, 0x00, 0x00, 0x00, 0x7f,
   0x1c, 0x1c, 0x00, 0x00, 0x00, 0x00, 0x00, 0x00, 0x00, 0x00, 0x38, 0x08,
   0x00, 0x1c, 0x1c, 0x7f, 0x3e, 0x1c, 0x00, 0x00, 0x00, 0x00, 0x00, 0x00,
   0x00, 0x00, 0x2c, 0x3e, 0x00, 0x63, 0x7f, 0x7f, 0x7f, 0x7f, 0x00, 0x00,
   0x00, 0x00, 0x00, 0x00, 0x00, 0x00, 0x24, 0x22, 0x00, 0x55, 0x6b, 0x3e,
   0x3e, 0x7f, 0x00, 0x00, 0x00, 0x00, 0x00, 0x00, 0x00, 0x00, 0x24, 0x63,
   0x00, 0x7f, 0x7f, 0x3e, 0x1c, 0x7f, 0x00, 0x00, 0x00, 0x00, 0x00, 0x00,
   0x00, 0x00, 0x24, 0x22, 0x00, 0x63, 0x63, 0x1c, 0x08, 0x18, 0x00, 0x00,
   0x00, 0x00, 0x00, 0x00, 0x00, 0x00, 0x3c, 0x3e, 0x00, 0x1c, 0x1c, 0x08,
   0x08, 0x18, 0x00, 0x00, 0x00, 0x00, 0x00, 0x00, 0x00, 0x00, 0x1c, 0x08,
   0x00, 0x00, 0x00, 0x00, 0x00, 0x00, 0x00, 0x00, 0x00, 0x00, 0x00, 0x00,
   0x00, 0x00, 0x07, 0x00, 0x00, 0x00, 0x00, 0x00, 0x00, 0x00, 0x00, 0x00,
   0x00, 0x00, 0x00, 0x00, 0x00, 0x00, 0x03, 0x00, 0x00, 0x00, 0x00, 0x00,
   0x00, 0x00, 0x00, 0x00, 0x00, 0x00, 0x00, 0x00, 0x00, 0x00, 0x00, 0x00,
   0x00, 0x00, 0x00, 0x00, 0x00, 0x00, 0x00, 0x08, 0x00, 0x00, 0x00, 0x00,
   0x00, 0x00, 0x00, 0x00, 0x00, 0x00, 0x08, 0x12, 0x3e, 0x3c, 0x00, 0x08,
   0x08, 0x08, 0x00, 0x00, 0x00, 0x00, 0x00, 0x00, 0x01, 0x40, 0x08, 0x12,
   0x2e, 0x02, 0x00, 0x1c, 0x08, 0x08, 0x00, 0x00, 0x00, 0x00, 0x08, 0x7f,
   0x07, 0x70, 0x1c, 0x12, 0x2e, 0x06, 0x7f, 0x08, 0x1c, 0x08, 0x00, 0x00,
   0x02, 0x00, 0x08, 0x3e, 0x1f, 0x7c, 0x08, 0x12, 0x2c, 0x1c, 0x7f, 0x08,
   0x08, 0x08, 0x08, 0x04, 0x02, 0x00, 0x1c, 0x3e, 0x7f, 0x7f, 0x08, 0x12,
   0x28, 0x22, 0x00, 0x08, 0x08, 0x08, 0x3e, 0x3e, 0x02, 0x3e, 0x1c, 0x1c,
   0x1f, 0x7c, 0x08, 0x12, 0x28, 0x26, 0x00, 0x08, 0x08, 0x08, 0x08, 0x04,
   0x02, 0x00, 0x3e, 0x1c, 0x07, 0x70, 0x08, 0x00, 0x28, 0x1c, 0x00, 0x1c,
   0x08, 0x08, 0x00, 0x00, 0x02, 0x00, 0x3e, 0x08, 0x01, 0x40, 0x08, 0x12,
   0x28, 0x20, 0x00, 0x08, 0x08, 0x08, 0x00, 0x00, 0x3e, 0x00, 0x7f, 0x08,
   0x00, 0x00, 0x1c, 0x00, 0x28, 0x20, 0x00, 0x00, 0x08, 0x1c, 0x00, 0x00,
   0x00, 0x00, 0x00, 0x00, 0x00, 0x00, 0x08, 0x00, 0x28, 0x1e, 0x00, 0x1c,
   0x08, 0x08, 0x00, 0x00, 0x00, 0x00, 0x00, 0x00, 0x00, 0x00, 0x00, 0x00,
   0x00, 0x00, 0x00, 0x00, 0x00, 0x00, 0x00, 0x00, 0x00, 0x00, 0x00, 0x00,
   0x00, 0x00, 0x12, 0x00, 0x08, 0x00, 0x00, 0x08, 0x30, 0x02, 0x00, 0x00,
   0x00, 0x00, 0x00, 0x40, 0x00, 0x08, 0x12, 0x28, 0x3c, 0x46, 0x38, 0x08,
   0x18, 0x0c, 0x08, 0x00, 0x00, 0x00, 0x00, 0x20, 0x00, 0x08, 0x12, 0x28,
   0x0a, 0x29, 0x24, 0x08, 0x08, 0x08, 0x36, 0x00, 0x00, 0x00, 0x00, 0x20,
   0x00, 0x08, 0x00, 0x7e, 0x0a, 0x19, 0x34, 0x00, 0x04, 0x10, 0x0c, 0x08,
   0x00, 0x00, 0x00, 0x10, 0x00, 0x08, 0x00, 0x14, 0x0c, 0x0e, 0x0c, 0x00,
   0x04, 0x10, 0x14, 0x08, 0x00, 0x00, 0x00, 0x10, 0x00, 0x08, 0x00, 0x14,
   0x18, 0x38, 0x4b, 0x00, 0x04, 0x10, 0x00, 0x7f, 0x00, 0x3e, 0x00, 0x08,
   0x00, 0x08, 0x00, 0x3f, 0x28, 0x4c, 0x51, 0x00, 0x04, 0x10, 0x00, 0x08,
   0x00, 0x00, 0x00, 0x04, 0x00, 0x00, 0x00, 0x0a, 0x28, 0x4a, 0x33, 0x00,
   0x04, 0x10, 0x00, 0x08, 0x0c, 0x00, 0x0c, 0x04, 0x00, 0x08, 0x00, 0x0a,
   0x1e, 0x31, 0x7e, 0x00, 0x08, 0x08, 0x00, 0x08, 0x0c, 0x00, 0x0c, 0x02,
   0x00, 0x00, 0x00, 0x00, 0x08, 0x00, 0x00, 0x00, 0x18, 0x0c, 0x00, 0x00,
   0x08, 0x00, 0x00, 0x02, 0x00, 0x00, 0x00, 0x00, 0x00, 0x00, 0x00, 0x00,
   0x30, 0x06, 0x00, 0x00, 0x04, 0x00, 0x00, 0x01, 0x00, 0x00, 0x00, 0x00,
   0x00, 0x00, 0x00, 0x00, 0x00, 0x00, 0x00, 0x00, 0x00, 0x00, 0x00, 0x00,
   0x00, 0x00, 0x00, 0x00, 0x00, 0x00, 0x00, 0x00, 0x00, 0x00, 0x00, 0x00,
   0x00, 0x00, 0x00, 0x00, 0x1e, 0x08, 0x1e, 0x1e, 0x10, 0x1e, 0x38, 0x3e,
   0x1c, 0x1c, 0x00, 0x00, 0x00, 0x00, 0x00, 0x1e, 0x12, 0x0e, 0x20, 0x10,
   0x18, 0x02, 0x04, 0x20, 0x22, 0x22, 0x00, 0x00, 0x00, 0x00, 0x00, 0x22,
   0x21, 0x08, 0x20, 0x10, 0x14, 0x02, 0x02, 0x10, 0x22, 0x22, 0x18, 0x0c,
   0x20, 0x00, 0x02, 0x20, 0x21, 0x08, 0x30, 0x0c, 0x12, 0x0e, 0x1a, 0x08,
   0x1c, 0x22, 0x18, 0x0c, 0x18, 0x3e, 0x0c, 0x10, 0x21, 0x08, 0x08, 0x10,
   0x11, 0x10, 0x26, 0x04, 0x12, 0x3c, 0x00, 0x00, 0x04, 0x00, 0x10, 0x08,
   0x21, 0x08, 0x04, 0x10, 0x3f, 0x10, 0x22, 0x04, 0x22, 0x20, 0x00, 0x00,
   0x04, 0x3e, 0x10, 0x08, 0x12, 0x08, 0x02, 0x10, 0x10, 0x10, 0x22, 0x02,
   0x22, 0x10, 0x18, 0x0c, 0x18, 0x00, 0x0c, 0x00, 0x1e, 0x3e, 0x3e, 0x0e,
   0x10, 0x0e, 0x1c, 0x02, 0x1c, 0x0e, 0x18, 0x0c, 0x20, 0x00, 0x02, 0x08,
   0x00, 0x00, 0x00, 0x00, 0x00, 0x00, 0x00, 0x00, 0x00, 0x00, 0x00, 0x08,
   0x00, 0x00, 0x00, 0x00, 0x00, 0x00, 0x00, 0x00, 0x00, 0x00, 0x00, 0x00,
   0x00, 0x00, 0x00, 0x04, 0x00, 0x00, 0x00, 0x00, 0x00, 0x00, 0x00, 0x00,
   0x00, 0x00, 0x00, 0x00, 0x00, 0x00, 0x00, 0x00, 0x00, 0x00, 0x00, 0x00,
   0x00, 0x00, 0x00, 0x00, 0x00, 0x00, 0x00, 0x00, 0x00, 0x00, 0x00, 0x00,
   0x00, 0x00, 0x00, 0x00, 0x1c, 0x08, 0x1e, 0x3c, 0x0f, 0x3e, 0x3e, 0x3c,
   0x22, 0x3e, 0x1e, 0x22, 0x02, 0x33, 0x22, 0x1e, 0x22, 0x14, 0x22, 0x02,
   0x11, 0x02, 0x02, 0x02, 0x22, 0x08, 0x10, 0x12, 0x02, 0x33, 0x26, 0x12,
   0x39, 0x14, 0x22, 0x01, 0x21, 0x02, 0x02, 0x01, 0x22, 0x08, 0x10, 0x0a,
   0x02, 0x2b, 0x26, 0x21, 0x25, 0x14, 0x1e, 0x01, 0x21, 0x02, 0x02, 0x01,
   0x3e, 0x08, 0x10, 0x06, 0x02, 0x2d, 0x2a, 0x21, 0x35, 0x22, 0x22, 0x01,
   0x21, 0x1e, 0x1e, 0x39, 0x22, 0x08, 0x10, 0x06, 0x02, 0x2d, 0x2a, 0x21,
   0x6d, 0x3e, 0x22, 0x01, 0x21, 0x02, 0x02, 0x21, 0x22, 0x08, 0x10, 0x0a,
   0x02, 0x25, 0x32, 0x21, 0x02, 0x22, 0x22, 0x02, 0x11, 0x02, 0x02, 0x22,
   0x22, 0x08, 0x10, 0x12, 0x02, 0x21, 0x32, 0x12, 0x1c, 0x41, 0x1e, 0x3c,
   0x0f, 0x3e, 0x02, 0x3c, 0x22, 0x3e, 0x0f, 0x22, 0x3e, 0x21, 0x22, 0x1e,
   0x00, 0x00, 0x00, 0x00, 0x00, 0x00, 0x00, 0x00, 0x00, 0x00, 0x00, 0x00,
   0x00, 0x00, 0x00, 0x00, 0x00, 0x00, 0x00, 0x00, 0x00, 0x00, 0x00, 0x00,
   0x00, 0x00, 0x00, 0x00, 0x00, 0x00, 0x00, 0x00, 0x00, 0x00, 0x00, 0x00,
   0x00, 0x00, 0x00, 0x00, 0x00, 0x00, 0x00, 0x00, 0x00, 0x00, 0x00, 0x00,
   0x00, 0x00, 0x00, 0x00, 0x00, 0x00, 0x00, 0x00, 0x00, 0x00, 0x00, 0x78,
   0x01, 0x1e, 0x08, 0x00, 0x1e, 0x1e, 0x1e, 0x3c, 0x7f, 0x22, 0x41, 0x41,
   0x41, 0x41, 0x3f, 0x08, 0x02, 0x10, 0x08, 0x00, 0x22, 0x12, 0x22, 0x02,
   0x08, 0x22, 0x22, 0x41, 0x22, 0x22, 0x20, 0x08, 0x02, 0x10, 0x0c, 0x00,
   0x22, 0x21, 0x22, 0x02, 0x08, 0x22, 0x22, 0x49, 0x14, 0x14, 0x10, 0x08,
   0x04, 0x10, 0x14, 0x00, 0x22, 0x21, 0x12, 0x0c, 0x08, 0x22, 0x22, 0x49,
   0x08, 0x14, 0x08, 0x08, 0x04, 0x10, 0x14, 0x00, 0x1e, 0x21, 0x0e, 0x10,
   0x08, 0x22, 0x14, 0x56, 0x08, 0x08, 0x04, 0x08, 0x08, 0x10, 0x12, 0x00,
   0x02, 0x21, 0x0a, 0x20, 0x08, 0x22, 0x14, 0x36, 0x14, 0x08, 0x02, 0x08,
   0x10, 0x10, 0x22, 0x00, 0x02, 0x12, 0x12, 0x20, 0x08, 0x22, 0x1c, 0x36,
   0x22, 0x08, 0x01, 0x08, 0x10, 0x10, 0x00, 0x00, 0x02, 0x1c, 0x22, 0x1e,
   0x08, 0x1c, 0x08, 0x22, 0x41, 0x08, 0x3f, 0x08, 0x20, 0x10, 0x00, 0x00,
   0x00, 0x10, 0x00, 0x00, 0x00, 0x00, 0x00, 0x00, 0x00, 0x00, 0x00, 0x08,
   0x20, 0x10, 0x00, 0x7f, 0x00, 0x60, 0x00, 0x00, 0x00, 0x00, 0x00, 0x00,
   0x00, 0x00, 0x00, 0x78, 0x40, 0x1e, 0x00, 0x00, 0x00, 0x00, 0x00, 0x00,
   0x00, 0x00, 0x00, 0x00, 0x00, 0x00, 0x00, 0x00, 0x00, 0x00, 0x00, 0x00,
   0x04, 0x00, 0x02, 0x00, 0x20, 0x00, 0x38, 0x00, 0x02, 0x08, 0x10, 0x02,
   0x0e, 0x00, 0x00, 0x00, 0x08, 0x00, 0x02, 0x00, 0x20, 0x00, 0x04, 0x00,
   0x02, 0x00, 0x00, 0x02, 0x08, 0x00, 0x00, 0x00, 0x00, 0x00, 0x02, 0x00,
   0x20, 0x00, 0x04, 0x00, 0x02, 0x00, 0x00, 0x02, 0x08, 0x00, 0x00, 0x00,
   0x00, 0x1c, 0x1a, 0x3c, 0x3c, 0x1c, 0x3f, 0x3c, 0x3a, 0x0e, 0x1e, 0x22,
   0x08, 0x6d, 0x3a, 0x1e, 0x00, 0x20, 0x26, 0x02, 0x22, 0x22, 0x04, 0x22,
   0x26, 0x08, 0x10, 0x12, 0x08, 0x5b, 0x26, 0x21, 0x00, 0x3c, 0x22, 0x02,
   0x22, 0x3e, 0x04, 0x22, 0x22, 0x08, 0x10, 0x0e, 0x08, 0x49, 0x22, 0x21,
   0x00, 0x22, 0x22, 0x02, 0x22, 0x02, 0x04, 0x22, 0x22, 0x08, 0x10, 0x0a,
   0x08, 0x49, 0x22, 0x21, 0x00, 0x22, 0x22, 0x02, 0x32, 0x02, 0x04, 0x22,
   0x22, 0x08, 0x10, 0x12, 0x08, 0x49, 0x22, 0x21, 0x00, 0x7c, 0x1e, 0x3c,
   0x2c, 0x3c, 0x04, 0x3c, 0x22, 0x08, 0x10, 0x22, 0x08, 0x49, 0x22, 0x1e,
   0x00, 0x00, 0x00, 0x00, 0x00, 0x00, 0x00, 0x20, 0x00, 0x00, 0x10, 0x00,
   0x00, 0x00, 0x00, 0x00, 0x00, 0x00, 0x00, 0x00, 0x00, 0x00, 0x00, 0x1c,
   0x00, 0x00, 0x0e, 0x00, 0x00, 0x00, 0x00, 0x00, 0x00, 0x00, 0x00, 0x00,
   0x00, 0x00, 0x00, 0x00, 0x00, 0x00, 0x00, 0x00, 0x00, 0x00, 0x00, 0x00,
   0x00, 0x00, 0x00, 0x00, 0x00, 0x00, 0x00, 0x00, 0x00, 0x00, 0x00, 0x38,
   0x08, 0x06, 0x00, 0x00, 0x00, 0x00, 0x00, 0x00, 0x04, 0x00, 0x00, 0x00,
   0x00, 0x00, 0x00, 0x08, 0x08, 0x08, 0x00, 0x3e, 0x00, 0x00, 0x00, 0x00,
   0x04, 0x00, 0x00, 0x00, 0x00, 0x00, 0x00, 0x08, 0x08, 0x08, 0x00, 0x22,
   0x1a, 0x3c, 0x3a, 0x3c, 0x3f, 0x22, 0x41, 0x41, 0x21, 0x21, 0x3f, 0x08,
   0x08, 0x08, 0x00, 0x22, 0x26, 0x22, 0x26, 0x02, 0x04, 0x22, 0x22, 0x49,
   0x12, 0x12, 0x10, 0x08, 0x08, 0x08, 0x00, 0x22, 0x22, 0x22, 0x02, 0x0e,
   0x04, 0x22, 0x22, 0x55, 0x0c, 0x12, 0x08, 0x06, 0x08, 0x30, 0x4e, 0x22,
   0x22, 0x22, 0x02, 0x30, 0x04, 0x22, 0x14, 0x55, 0x0c, 0x0c, 0x04, 0x08,
   0x08, 0x08, 0x39, 0x22, 0x22, 0x22, 0x02, 0x20, 0x04, 0x32, 0x14, 0x36,
   0x12, 0x0c, 0x02, 0x08, 0x08, 0x08, 0x00, 0x22, 0x1e, 0x3c, 0x02, 0x1e,
   0x38, 0x2e, 0x08, 0x22, 0x21, 0x04, 0x3f, 0x08, 0x08, 0x08, 0x00, 0x3e,
   0x02, 0x20, 0x00, 0x00, 0x00, 0x00, 0x00, 0x00, 0x00, 0x04, 0x00, 0x08,
   0x08, 0x08, 0x00, 0x00, 0x02, 0x20, 0x00, 0x00, 0x00, 0x00, 0x00, 0x00,
   0x00, 0x03, 0x00, 0x30, 0x08, 0x0e, 0x00, 0x00, 0x00, 0x00, 0x00, 0x00,
   0x00, 0x00, 0x00, 0x00, 0x00, 0x00, 0x00, 0x00, 0x00, 0x00, 0x00, 0x00,
   0x00, 0x00, 0x10, 0x18, 0x00, 0x04, 0x08, 0x00, 0x18, 0x00, 0x04, 0x00,
   0x18, 0x04, 0x12, 0x1c, 0x3c, 0x14, 0x08, 0x24, 0x14, 0x08, 0x14, 0x00,
   0x24, 0x14, 0x08, 0x14, 0x24, 0x08, 0x08, 0x08, 0x02, 0x00, 0x00, 0x00,
   0x00, 0x00, 0x08, 0x00, 0x00, 0x00, 0x00, 0x00, 0x00, 0x00, 0x14, 0x14,
   0x01, 0x22, 0x1c, 0x1c, 0x1c, 0x1c, 0x1c, 0x3c, 0x1c, 0x1c, 0x1c, 0x0e,
   0x0e, 0x0e, 0x14, 0x14, 0x01, 0x22, 0x22, 0x20, 0x20, 0x20, 0x20, 0x02,
   0x22, 0x22, 0x22, 0x08, 0x08, 0x08, 0x14, 0x14, 0x01, 0x22, 0x3e, 0x3c,
   0x3c, 0x3c, 0x3c, 0x02, 0x3e, 0x3e, 0x3e, 0x08, 0x08, 0x08, 0x22, 0x22,
   0x01, 0x22, 0x02, 0x22, 0x22, 0x22, 0x22, 0x02, 0x02, 0x02, 0x02, 0x08,
   0x08, 0x08, 0x3e, 0x3e, 0x02, 0x32, 0x02, 0x22, 0x22, 0x22, 0x22, 0x02,
   0x02, 0x02, 0x02, 0x08, 0x08, 0x08, 0x22, 0x22, 0x3c, 0x2e, 0x3c, 0x7c,
   0x7c, 0x7c, 0x7c, 0x3c, 0x3c, 0x3c, 0x3c, 0x08, 0x08, 0x08, 0x41, 0x41,
   0x10, 0x00, 0x00, 0x00, 0x00, 0x00, 0x00, 0x08, 0x00, 0x00, 0x00, 0x00,
   0x00, 0x00, 0x00, 0x00, 0x20, 0x00, 0x00, 0x00, 0x00, 0x00, 0x00, 0x10,
   0x00, 0x00, 0x00, 0x00, 0x00, 0x00, 0x00, 0x00, 0x30, 0x00, 0x00, 0x00,
   0x00, 0x00, 0x00, 0x18, 0x00, 0x00, 0x00, 0x00, 0x00, 0x00, 0x00, 0x00,
   0x10, 0x00, 0x00, 0x18, 0x00, 0x04, 0x18, 0x02, 0x00, 0x12, 0x12, 0x00,
   0x00, 0x00, 0x00, 0x70, 0x3e, 0x00, 0x78, 0x24, 0x14, 0x08, 0x24, 0x04,
   0x14, 0x1e, 0x22, 0x10, 0x30, 0x41, 0x07, 0x08, 0x02, 0x00, 0x18, 0x00,
   0x00, 0x00, 0x00, 0x00, 0x00, 0x12, 0x22, 0x3c, 0x08, 0x22, 0x09, 0x08,
   0x02, 0x37, 0x14, 0x1e, 0x1e, 0x1e, 0x22, 0x22, 0x21, 0x21, 0x22, 0x16,
   0x08, 0x14, 0x09, 0x3c, 0x02, 0x48, 0x14, 0x21, 0x21, 0x21, 0x22, 0x22,
   0x12, 0x21, 0x22, 0x12, 0x1c, 0x08, 0x07, 0x08, 0x1e, 0x7e, 0x32, 0x21,
   0x21, 0x21, 0x22, 0x22, 0x12, 0x21, 0x22, 0x12, 0x08, 0x3e, 0x69, 0x08,
   0x02, 0x09, 0x1e, 0x21, 0x21, 0x21, 0x22, 0x22, 0x0c, 0x21, 0x22, 0x16,
   0x08, 0x08, 0x3d, 0x08, 0x02, 0x09, 0x12, 0x21, 0x21, 0x21, 0x32, 0x32,
   0x0c, 0x12, 0x22, 0x3c, 0x04, 0x3e, 0x49, 0x08, 0x3e, 0x76, 0x71, 0x1e,
   0x1e, 0x1e, 0x2e, 0x2e, 0x04, 0x1e, 0x1c, 0x10, 0x3c, 0x08, 0x79, 0x08,
   0x00, 0x00, 0x00, 0x00, 0x00, 0x00, 0x00, 0x00, 0x04, 0x00, 0x00, 0x00,
   0x00, 0x00, 0x00, 0x08, 0x00, 0x00, 0x00, 0x00, 0x00, 0x00, 0x00, 0x00,
   0x03, 0x00, 0x00, 0x00, 0x00, 0x00, 0x00, 0x07, 0x00, 0x00, 0x00, 0x00,
   0x00, 0x00, 0x00, 0x00, 0x00, 0x00, 0x00, 0x00, 0x00, 0x00, 0x00, 0x00,
   0x10, 0x10, 0x10, 0x10, 0x28, 0x28, 0x00, 0x00, 0x00, 0x00, 0x00, 0x00,
   0x00, 0x00, 0x00, 0x00, 0x08, 0x08, 0x08, 0x08, 0x14, 0x36, 0x1e, 0x1c,
   0x00, 0x00, 0x00, 0x23, 0x23, 0x00, 0x00, 0x00, 0x00, 0x00, 0x00, 0x00,
   0x00, 0x26, 0x10, 0x22, 0x00, 0x00, 0x00, 0x12, 0x12, 0x00, 0x00, 0x00,
   0x1c, 0x0e, 0x1e, 0x22, 0x3a, 0x26, 0x1c, 0x22, 0x08, 0x00, 0x00, 0x0a,
   0x0a, 0x08, 0x28, 0x0a, 0x20, 0x08, 0x21, 0x22, 0x26, 0x2a, 0x12, 0x22,
   0x00, 0x3e, 0x3f, 0x7a, 0x2a, 0x00, 0x14, 0x14, 0x3c, 0x08, 0x21, 0x22,
   0x22, 0x2a, 0x3e, 0x1c, 0x08, 0x02, 0x20, 0x44, 0x34, 0x08, 0x0a, 0x28,
   0x22, 0x08, 0x21, 0x22, 0x22, 0x32, 0x00, 0x00, 0x08, 0x02, 0x20, 0x24,
   0x2c, 0x08, 0x14, 0x14, 0x22, 0x08, 0x21, 0x32, 0x22, 0x32, 0x00, 0x00,
   0x04, 0x00, 0x00, 0x12, 0x7a, 0x08, 0x28, 0x0a, 0x7c, 0x08, 0x1e, 0x2e,
   0x22, 0x22, 0x00, 0x00, 0x02, 0x00, 0x00, 0x71, 0x21, 0x08, 0x00, 0x00,
   0x00, 0x00, 0x00, 0x00, 0x00, 0x00, 0x00, 0x00, 0x22, 0x00, 0x00, 0x00,
   0x00, 0x08, 0x00, 0x00, 0x00, 0x00, 0x00, 0x00, 0x00, 0x00, 0x00, 0x00,
   0x3c, 0x00, 0x00, 0x00, 0x00, 0x08, 0x00, 0x00, 0x00, 0x00, 0x00, 0x00,
   0x00, 0x00, 0x00, 0x00, 0x00, 0x00, 0x00, 0x00, 0x00, 0x00, 0x00, 0x00,
   0x25, 0x52, 0x7f, 0x08, 0x08, 0x08, 0x14, 0x00, 0x00, 0x14, 0x14, 0x00,
   0x14, 0x14, 0x08, 0x00, 0x00, 0x25, 0x25, 0x08, 0x08, 0x08, 0x14, 0x00,
   0x00, 0x14, 0x14, 0x00, 0x14, 0x14, 0x08, 0x00, 0x25, 0x52, 0x7f, 0x08,
   0x08, 0x08, 0x14, 0x00, 0x00, 0x14, 0x14, 0x00, 0x14, 0x14, 0x08, 0x00,
   0x00, 0x00, 0x25, 0x08, 0x08, 0x08, 0x14, 0x00, 0x00, 0x14, 0x14, 0x00,
   0x14, 0x14, 0x08, 0x00, 0x00, 0x25, 0x25, 0x08, 0x08, 0x0f, 0x14, 0x00,
   0x0f, 0x17, 0x14, 0x1f, 0x17, 0x14, 0x0f, 0x00, 0x25, 0x52, 0x7f, 0x08,
   0x0f, 0x08, 0x17, 0x1f, 0x08, 0x10, 0x14, 0x10, 0x10, 0x1f, 0x08, 0x0f,
   0x00, 0x25, 0x25, 0x08, 0x08, 0x0f, 0x14, 0x14, 0x0f, 0x17, 0x14, 0x17,
   0x1f, 0x00, 0x0f, 0x08, 0x25, 0x52, 0x7f, 0x08, 0x08, 0x08, 0x14, 0x14,
   0x08, 0x14, 0x14, 0x14, 0x00, 0x00, 0x00, 0x08, 0x00, 0x25, 0x25, 0x08,
   0x08, 0x08, 0x14, 0x14, 0x08, 0x14, 0x14, 0x14, 0x00, 0x00, 0x00, 0x08,
   0x00, 0x00, 0x25, 0x08, 0x08, 0x08, 0x14, 0x14, 0x08, 0x14, 0x14, 0x14,
   0x00, 0x00, 0x00, 0x08, 0x25, 0x52, 0x7f, 0x08, 0x08, 0x08, 0x14, 0x14,
   0x08, 0x14, 0x14, 0x14, 0x00, 0x00, 0x00, 0x08, 0x00, 0x25, 0x25, 0x08,
   0x08, 0x08, 0x14, 0x14, 0x08, 0x14, 0x14, 0x14, 0x00, 0x00, 0x00, 0x08,
   0x08, 0x08, 0x00, 0x08, 0x00, 0x08, 0x08, 0x14, 0x14, 0x00, 0x14, 0x00,
   0x14, 0x00, 0x14, 0x08, 0x08, 0x08, 0x00, 0x08, 0x00, 0x08, 0x08, 0x14,
   0x14, 0x00, 0x14, 0x00, 0x14, 0x00, 0x14, 0x08, 0x08, 0x08, 0x00, 0x08,
   0x00, 0x08, 0x08, 0x14, 0x14, 0x00, 0x14, 0x00, 0x14, 0x00, 0x14, 0x08,
   0x08, 0x08, 0x00, 0x08, 0x00, 0x08, 0x08, 0x14, 0x14, 0x00, 0x14, 0x00,
   0x14, 0x00, 0x14, 0x08, 0x08, 0x08, 0x00, 0x08, 0x00, 0x08, 0x78, 0x14,
   0x74, 0x7c, 0x77, 0x7f, 0x74, 0x7f, 0x77, 0x7f, 0x78, 0x7f, 0x7f, 0x78,
   0x7f, 0x7f, 0x08, 0x74, 0x04, 0x04, 0x00, 0x00, 0x04, 0x00, 0x00, 0x00,
   0x00, 0x00, 0x08, 0x08, 0x00, 0x08, 0x78, 0x14, 0x7c, 0x74, 0x7f, 0x77,
   0x74, 0x7f, 0x77, 0x7f, 0x00, 0x00, 0x08, 0x08, 0x00, 0x08, 0x08, 0x14,
   0x00, 0x14, 0x00, 0x14, 0x14, 0x00, 0x14, 0x00, 0x00, 0x00, 0x08, 0x08,
   0x00, 0x08, 0x08, 0x14, 0x00, 0x14, 0x00, 0x14, 0x14, 0x00, 0x14, 0x00,
   0x00, 0x00, 0x08, 0x08, 0x00, 0x08, 0x08, 0x14, 0x00, 0x14, 0x00, 0x14,
   0x14, 0x00, 0x14, 0x00, 0x00, 0x00, 0x08, 0x08, 0x00, 0x08, 0x08, 0x14,
   0x00, 0x14, 0x00, 0x14, 0x14, 0x00, 0x14, 0x00, 0x00, 0x00, 0x08, 0x08,
   0x00, 0x08, 0x08, 0x14, 0x00, 0x14, 0x00, 0x14, 0x14, 0x00, 0x14, 0x00,
   0x14, 0x00, 0x00, 0x14, 0x08, 0x00, 0x00, 0x14, 0x08, 0x08, 0x00, 0x7f,
   0x00, 0x0f, 0x70, 0x7f, 0x14, 0x00, 0x00, 0x14, 0x08, 0x00, 0x00, 0x14,
   0x08, 0x08, 0x00, 0x7f, 0x00, 0x0f, 0x70, 0x7f, 0x14, 0x00, 0x00, 0x14,
   0x08, 0x00, 0x00, 0x14, 0x08, 0x08, 0x00, 0x7f, 0x00, 0x0f, 0x70, 0x7f,
   0x14, 0x00, 0x00, 0x14, 0x08, 0x00, 0x00, 0x14, 0x08, 0x08, 0x00, 0x7f,
   0x00, 0x0f, 0x70, 0x7f, 0x14, 0x7f, 0x00, 0x14, 0x78, 0x78, 0x00, 0x14,
   0x7f, 0x08, 0x00, 0x7f, 0x00, 0x0f, 0x70, 0x7f, 0x7f, 0x00, 0x7f, 0x7c,
   0x08, 0x08, 0x7c, 0x7f, 0x08, 0x0f, 0x78, 0x7f, 0x00, 0x0f, 0x70, 0x7f,
   0x00, 0x7f, 0x14, 0x00, 0x78, 0x78, 0x14, 0x14, 0x7f, 0x00, 0x08, 0x7f,
   0x7f, 0x0f, 0x70, 0x00, 0x00, 0x08, 0x14, 0x00, 0x00, 0x08, 0x14, 0x14,
   0x08, 0x00, 0x08, 0x7f, 0x7f, 0x0f, 0x70, 0x00, 0x00, 0x08, 0x14, 0x00,
   0x00, 0x08, 0x14, 0x14, 0x08, 0x00, 0x08, 0x7f, 0x7f, 0x0f, 0x70, 0x00,
   0x00, 0x08, 0x14, 0x00, 0x00, 0x08, 0x14, 0x14, 0x08, 0x00, 0x08, 0x7f,
   0x7f, 0x0f, 0x70, 0x00, 0x00, 0x08, 0x14, 0x00, 0x00, 0x08, 0x14, 0x14,
   0x08, 0x00, 0x08, 0x7f, 0x7f, 0x0f, 0x70, 0x00, 0x00, 0x08, 0x14, 0x00,
   0x00, 0x08, 0x14, 0x14, 0x08, 0x00, 0x08, 0x7f, 0x7f, 0x0f, 0x70, 0x00,
   0x00, 0x1e, 0x00, 0x00, 0x00, 0x00, 0x00, 0x00, 0x00, 0x00, 0x00, 0x1c,
   0x00, 0x08, 0x00, 0x00, 0x00, 0x12, 0x7e, 0x00, 0x7f, 0x00, 0x00, 0x00,
   0x08, 0x1e, 0x1e, 0x02, 0x00, 0x08, 0x00, 0x00, 0x00, 0x12, 0x02, 0x00,
   0x02, 0x00, 0x00, 0x00, 0x08, 0x12, 0x21, 0x04, 0x00, 0x08, 0x00, 0x00,
   0x4e, 0x0a, 0x02, 0x7e, 0x04, 0x7e, 0x22, 0x7f, 0x3e, 0x21, 0x21, 0x18,
   0x36, 0x3e, 0x3c, 0x1e, 0x29, 0x0a, 0x02, 0x24, 0x08, 0x11, 0x22, 0x08,
   0x49, 0x2d, 0x21, 0x24, 0x55, 0x49, 0x02, 0x21, 0x31, 0x12, 0x02, 0x24,
   0x08, 0x11, 0x22, 0x08, 0x49, 0x21, 0x21, 0x42, 0x49, 0x49, 0x1e, 0x21,
   0x11, 0x22, 0x02, 0x24, 0x04, 0x11, 0x22, 0x08, 0x49, 0x21, 0x11, 0x42,
   0x55, 0x49, 0x02, 0x21, 0x29, 0x42, 0x02, 0x24, 0x02, 0x11, 0x32, 0x08,
   0x3e, 0x12, 0x12, 0x42, 0x36, 0x49, 0x02, 0x21, 0x46, 0x3a, 0x02, 0x24,
   0x7f, 0x0e, 0x2e, 0x08, 0x08, 0x1e, 0x33, 0x3c, 0x00, 0x3e, 0x3c, 0x21,
   0x00, 0x00, 0x00, 0x00, 0x00, 0x00, 0x02, 0x00, 0x00, 0x00, 0x00, 0x00,
   0x00, 0x08, 0x00, 0x00, 0x00, 0x00, 0x00, 0x00, 0x00, 0x00, 0x02, 0x00,
   0x00, 0x00, 0x00, 0x00, 0x00, 0x08, 0x00, 0x00, 0x00, 0x00, 0x00, 0x00,
   0x00, 0x00, 0x00, 0x00, 0x00, 0x00, 0x00, 0x00, 0x00, 0x00, 0x00, 0x00,
   0x00, 0x00, 0x00, 0x00, 0x30, 0x08, 0x00, 0x00, 0x00, 0x00, 0x00, 0x40,
   0x00, 0x00, 0x00, 0x00, 0x00, 0x00, 0x00, 0x00, 0x08, 0x08, 0x00, 0x00,
   0x08, 0x00, 0x00, 0x40, 0x1e, 0x3c, 0x00, 0x00, 0x00, 0x08, 0x02, 0x20,
   0x08, 0x08, 0x00, 0x00, 0x14, 0x00, 0x00, 0x20, 0x12, 0x20, 0x00, 0x00,
   0x3e, 0x08, 0x0c, 0x18, 0x08, 0x08, 0x04, 0x2e, 0x08, 0x00, 0x00, 0x20,
   0x12, 0x18, 0x7f, 0x00, 0x00, 0x3e, 0x10, 0x04, 0x08, 0x08, 0x00, 0x3a,
   0x00, 0x1c, 0x00, 0x20, 0x12, 0x3c, 0x7f, 0x00, 0x3e, 0x08, 0x10, 0x04,
   0x08, 0x08, 0x3f, 0x00, 0x00, 0x1c, 0x0c, 0x10, 0x12, 0x00, 0x7f, 0x00,
   0x00, 0x08, 0x0c, 0x18, 0x08, 0x08, 0x00, 0x2e, 0x00, 0x1c, 0x0c, 0x13,
   0x00, 0x00, 0x7f, 0x00, 0x3e, 0x00, 0x02, 0x20, 0x08, 0x08, 0x00, 0x3a,
   0x00, 0x00, 0x00, 0x12, 0x00, 0x00, 0x7f, 0x00, 0x00, 0x3e, 0x00, 0x00,
   0x08, 0x08, 0x04, 0x00, 0x00, 0x00, 0x00, 0x0c, 0x00, 0x00, 0x7f, 0x00,
   0x00, 0x00, 0x3e, 0x3e, 0x08, 0x08, 0x00, 0x00, 0x00, 0x00, 0x00, 0x0c,
   0x00, 0x00, 0x00, 0x00, 0x00, 0x00, 0x00, 0x00, 0x08, 0x08, 0x00, 0x00,
   0x00, 0x00, 0x00, 0x08, 0x00, 0x00, 0x00, 0x00, 0x00, 0x00, 0x00, 0x00,
   0x08, 0x06, 0x00, 0x00, 0x00, 0x00, 0x00, 0x00, 0x00, 0x00, 0x00, 0x00 };
